# xmcd
# 
# Track frame offsets:
#     150
#     25505
#     49305
#     76560
#     101207
#     130962
#     154210
#     181467
#     212530
#     236412
# 
# Disc length: 3428
# 
# Revision: 1
# Processed by: cddbd v1.5.2PL0 Copyright (c) Steve Scherf et al.
# Submitted via: BonkEnc v1.0.8
# 
DISCID=790d620a
DTITLE=Chuck Rainey - David T. Walker - Chuck Rainey - David T. Walker Band
DYEAR=1994
DGENRE=Fusion
TTITLE0=Interpretations Of The Groove
TTITLE1=Loving You
TTITLE2=Feel Like Making Love
TTITLE3=Born Again
TTITLE4=The Window Of The World
TTITLE5=I Want You
TTITLE6=Didn't I
TTITLE7=Possessions
TTITLE8=Body Heat
TTITLE9=Metroline
EXTD=
EXTT0=
EXTT1=
EXTT2=
EXTT3=
EXTT4=
EXTT5=
EXTT6=
EXTT7=
EXTT8=
EXTT9=
PLAYORDER=
